<svg xmlns="http://www.w3.org/2000/svg" xmlns:xlink="http://www.w3.org/1999/xlink" width="1080" zoomAndPan="magnify" viewBox="0 0 810 809.999993" height="1080" preserveAspectRatio="xMidYMid meet" version="1.0"><defs><g/><clipPath id="5d25a98e18"><path d="M 126.753906 126.753906 L 683.246094 126.753906 L 683.246094 683.246094 L 126.753906 683.246094 Z M 126.753906 126.753906 " clip-rule="nonzero"/></clipPath><clipPath id="594dd4d4df"><path d="M 405 126.753906 C 251.328125 126.753906 126.753906 251.328125 126.753906 405 C 126.753906 558.671875 251.328125 683.246094 405 683.246094 C 558.671875 683.246094 683.246094 558.671875 683.246094 405 C 683.246094 251.328125 558.671875 126.753906 405 126.753906 Z M 405 126.753906 " clip-rule="nonzero"/></clipPath><clipPath id="2d29cc2c2d"><path d="M 266 394.855469 L 354 394.855469 L 354 406.148438 L 266 406.148438 Z M 266 394.855469 " clip-rule="nonzero"/></clipPath><clipPath id="c019633311"><path d="M 361 394.855469 L 449 394.855469 L 449 406.148438 L 361 406.148438 Z M 361 394.855469 " clip-rule="nonzero"/></clipPath><clipPath id="8152f5e252"><path d="M 457 394.855469 L 544 394.855469 L 544 406.148438 L 457 406.148438 Z M 457 394.855469 " clip-rule="nonzero"/></clipPath><clipPath id="a44ad92aca"><path d="M 437 205.824219 L 457 205.824219 L 457 225 L 437 225 Z M 437 205.824219 " clip-rule="nonzero"/></clipPath><clipPath id="93384bb559"><path d="M 355 205.824219 L 375 205.824219 L 375 225 L 355 225 Z M 355 205.824219 " clip-rule="nonzero"/></clipPath><clipPath id="60c0c157a5"><path d="M 519 342 L 538.417969 342 L 538.417969 362 L 519 362 Z M 519 342 " clip-rule="nonzero"/></clipPath><clipPath id="63e5c6a45b"><path d="M 273.710938 342 L 293 342 L 293 362 L 273.710938 362 Z M 273.710938 342 " clip-rule="nonzero"/></clipPath></defs><g clip-path="url(#5d25a98e18)"><g clip-path="url(#594dd4d4df)"><path fill="#ffffff" d="M 126.753906 126.753906 L 683.246094 126.753906 L 683.246094 683.246094 L 126.753906 683.246094 Z M 126.753906 126.753906 " fill-opacity="1" fill-rule="nonzero"/></g></g><g clip-path="url(#2d29cc2c2d)"><path fill="#1a85f8" d="M 269.382812 394.878906 L 350.535156 394.878906 C 352.050781 394.878906 353.289062 396.09375 353.289062 397.585938 L 353.289062 403.40625 C 353.289062 404.894531 352.050781 406.109375 350.535156 406.109375 L 269.382812 406.109375 C 267.867188 406.109375 266.628906 404.894531 266.628906 403.40625 L 266.628906 397.585938 C 266.628906 396.09375 267.867188 394.878906 269.382812 394.878906 " fill-opacity="1" fill-rule="evenodd"/></g><g clip-path="url(#c019633311)"><path fill="#15b0f8" d="M 364.734375 394.878906 L 445.886719 394.878906 C 447.402344 394.878906 448.636719 396.09375 448.636719 397.585938 L 448.636719 403.40625 C 448.636719 404.894531 447.402344 406.109375 445.886719 406.109375 L 364.734375 406.109375 C 363.214844 406.109375 361.980469 404.894531 361.980469 403.40625 L 361.980469 397.585938 C 361.980469 396.09375 363.214844 394.878906 364.734375 394.878906 " fill-opacity="1" fill-rule="evenodd"/></g><g clip-path="url(#8152f5e252)"><path fill="#2ddaff" d="M 460.070312 394.878906 L 541.222656 394.878906 C 542.738281 394.878906 543.976562 396.09375 543.976562 397.585938 L 543.976562 403.40625 C 543.976562 404.894531 542.738281 406.109375 541.222656 406.109375 L 460.070312 406.109375 C 458.554688 406.109375 457.320312 404.894531 457.320312 403.40625 L 457.320312 397.585938 C 457.316406 396.09375 458.554688 394.878906 460.070312 394.878906 " fill-opacity="1" fill-rule="evenodd"/></g><g clip-path="url(#a44ad92aca)"><path fill="#03aadf" d="M 446.847656 205.566406 C 441.597656 205.566406 437.351562 209.808594 437.351562 215.0625 C 437.351562 220.316406 441.597656 224.558594 446.847656 224.558594 C 452.097656 224.558594 456.34375 220.316406 456.34375 215.0625 C 456.34375 209.808594 452.097656 205.566406 446.847656 205.566406 Z M 446.847656 205.566406 " fill-opacity="1" fill-rule="nonzero"/></g><g clip-path="url(#93384bb559)"><path fill="#03aadf" d="M 374.773438 215.0625 C 374.773438 209.808594 370.53125 205.566406 365.277344 205.566406 C 360.027344 205.566406 355.785156 209.808594 355.785156 215.0625 C 355.785156 220.316406 360.027344 224.558594 365.277344 224.558594 C 370.53125 224.558594 374.773438 220.316406 374.773438 215.0625 Z M 374.773438 215.0625 " fill-opacity="1" fill-rule="nonzero"/></g><path fill="#03aadf" d="M 516.980469 225.640625 C 511.730469 225.640625 507.484375 229.882812 507.484375 235.136719 C 507.484375 240.390625 511.730469 244.636719 516.980469 244.636719 C 522.230469 244.636719 526.476562 240.390625 526.476562 235.136719 C 526.476562 229.882812 522.230469 225.640625 516.980469 225.640625 Z M 516.980469 225.640625 " fill-opacity="1" fill-rule="nonzero"/><path fill="#03aadf" d="M 304.640625 235.136719 C 304.640625 229.882812 300.398438 225.640625 295.148438 225.640625 C 289.894531 225.640625 285.652344 229.882812 285.652344 235.136719 C 285.652344 240.390625 289.894531 244.636719 295.148438 244.636719 C 300.398438 244.636719 304.640625 240.390625 304.640625 235.136719 Z M 304.640625 235.136719 " fill-opacity="1" fill-rule="nonzero"/><path fill="#03aadf" d="M 415.558594 237.367188 C 415.558594 232.113281 411.316406 227.871094 406.0625 227.871094 C 400.8125 227.871094 396.570312 232.113281 396.570312 237.367188 C 396.570312 242.621094 400.8125 246.867188 406.0625 246.867188 C 411.316406 246.867188 415.558594 242.621094 415.558594 237.367188 Z M 415.558594 237.367188 " fill-opacity="1" fill-rule="nonzero"/><path fill="#193e80" d="M 516.980469 251.972656 C 515.6875 251.972656 514.535156 251.832031 513.3125 251.542969 L 513.3125 298.238281 L 487.34375 324.863281 C 487.273438 324.863281 487.273438 324.933594 487.273438 324.933594 L 455.765625 357.3125 C 455.121094 357.960938 454.761719 358.894531 454.761719 359.902344 L 454.761719 383.289062 L 462.097656 383.289062 L 462.097656 361.414062 L 491.515625 331.195312 L 506.621094 331.195312 L 514.964844 342.273438 C 516.332031 340.1875 518.203125 338.460938 520.289062 337.238281 L 511.371094 325.367188 C 510.652344 324.429688 509.570312 323.925781 508.421875 323.925781 L 498.636719 323.925781 L 519.640625 302.414062 C 520.289062 301.691406 520.648438 300.828125 520.648438 299.824219 L 520.648438 251.6875 C 519.496094 251.832031 518.203125 251.972656 516.980469 251.972656 Z M 516.980469 251.972656 " fill-opacity="1" fill-rule="nonzero"/><path fill="#03aadf" d="M 477.992188 261.617188 C 472.742188 261.617188 468.5 265.859375 468.5 271.113281 C 468.5 276.367188 472.742188 280.609375 477.992188 280.609375 C 483.246094 280.609375 487.488281 276.367188 487.488281 271.113281 C 487.488281 265.859375 483.246094 261.617188 477.992188 261.617188 Z M 477.992188 261.617188 " fill-opacity="1" fill-rule="nonzero"/><path fill="#03aadf" d="M 343.628906 271.113281 C 343.628906 265.859375 339.382812 261.617188 334.132812 261.617188 C 328.882812 261.617188 324.636719 265.859375 324.636719 271.113281 C 324.636719 276.367188 328.882812 280.609375 334.132812 280.609375 C 339.382812 280.609375 343.628906 276.367188 343.628906 271.113281 Z M 343.628906 271.113281 " fill-opacity="1" fill-rule="nonzero"/><path fill="#193e80" d="M 365.277344 231.898438 C 363.984375 231.898438 362.761719 231.753906 361.609375 231.46875 L 361.609375 274.640625 L 349.308594 305.578125 L 337.800781 294.355469 L 337.800781 287.445312 C 336.652344 287.734375 335.425781 287.878906 334.132812 287.878906 C 332.839844 287.878906 331.617188 287.734375 330.464844 287.445312 L 330.464844 295.863281 C 330.464844 296.871094 330.894531 297.808594 331.542969 298.527344 L 348.160156 314.644531 L 379.808594 345.367188 L 379.808594 383.144531 L 387.144531 383.144531 L 387.144531 343.785156 C 387.144531 342.777344 386.785156 341.84375 386.066406 341.125 L 355.066406 311.046875 L 368.730469 276.652344 C 368.875 276.222656 369.019531 275.789062 369.019531 275.285156 L 369.019531 231.394531 C 367.796875 231.753906 366.574219 231.898438 365.277344 231.898438 Z M 365.277344 231.898438 " fill-opacity="1" fill-rule="nonzero"/><path fill="#193e80" d="M 446.847656 231.898438 C 445.554688 231.898438 444.402344 231.753906 443.179688 231.46875 L 443.179688 275.359375 C 443.179688 275.789062 443.25 276.292969 443.46875 276.726562 L 457.132812 311.117188 L 426.132812 341.195312 C 425.414062 341.914062 424.980469 342.851562 424.980469 343.855469 L 424.980469 383.214844 L 432.316406 383.214844 L 432.316406 345.441406 L 463.96875 314.714844 L 480.582031 298.597656 C 481.304688 297.878906 481.734375 296.945312 481.734375 295.9375 L 481.734375 287.589844 C 480.582031 287.878906 479.359375 288.023438 478.066406 288.023438 C 476.769531 288.023438 475.621094 287.878906 474.398438 287.589844 L 474.398438 294.496094 L 462.816406 305.722656 L 450.515625 274.78125 L 450.515625 231.613281 C 449.292969 231.753906 448.070312 231.898438 446.847656 231.898438 Z M 446.847656 231.898438 " fill-opacity="1" fill-rule="nonzero"/><path fill="#193e80" d="M 295.148438 251.972656 C 293.851562 251.972656 292.628906 251.832031 291.476562 251.542969 L 291.476562 299.679688 C 291.476562 300.613281 291.835938 301.550781 292.558594 302.269531 L 313.5625 323.78125 L 303.777344 323.78125 C 302.628906 323.78125 301.546875 324.359375 300.828125 325.222656 L 291.835938 337.09375 C 293.996094 338.390625 295.792969 340.117188 297.160156 342.128906 L 305.503906 331.050781 L 320.609375 331.050781 L 350.03125 361.269531 L 350.03125 383.144531 L 357.367188 383.144531 L 357.367188 359.757812 C 357.367188 358.824219 357.007812 357.886719 356.289062 357.167969 L 324.710938 324.789062 L 324.636719 324.71875 L 298.671875 298.09375 L 298.671875 251.398438 C 297.664062 251.832031 296.371094 251.972656 295.148438 251.972656 Z M 295.148438 251.972656 " fill-opacity="1" fill-rule="nonzero"/><path fill="#193e80" d="M 423.542969 311.191406 L 409.730469 325.007812 L 409.730469 253.773438 C 408.582031 254.0625 407.359375 254.203125 406.0625 254.203125 C 404.769531 254.203125 403.617188 254.0625 402.394531 253.773438 L 402.394531 383.214844 L 409.730469 383.214844 L 409.730469 335.367188 L 429.800781 315.292969 C 430.449219 314.574219 430.878906 313.710938 430.878906 312.703125 L 430.878906 256.292969 C 430.878906 254.277344 429.226562 252.621094 427.210938 252.621094 C 425.195312 252.621094 423.542969 254.277344 423.542969 256.292969 Z M 423.542969 311.191406 " fill-opacity="1" fill-rule="nonzero"/><g clip-path="url(#60c0c157a5)"><path fill="#03aadf" d="M 528.921875 342.128906 C 523.671875 342.128906 519.425781 346.375 519.425781 351.628906 C 519.425781 356.878906 523.671875 361.125 528.921875 361.125 C 534.171875 361.125 538.414062 356.878906 538.414062 351.628906 C 538.414062 346.375 534.171875 342.128906 528.921875 342.128906 Z M 528.921875 342.128906 " fill-opacity="1" fill-rule="nonzero"/></g><g clip-path="url(#63e5c6a45b)"><path fill="#03aadf" d="M 292.773438 351.628906 C 292.773438 346.375 288.527344 342.128906 283.277344 342.128906 C 278.027344 342.128906 273.710938 346.375 273.710938 351.628906 C 273.710938 356.878906 277.957031 361.125 283.207031 361.125 C 288.457031 361.125 292.773438 356.878906 292.773438 351.628906 Z M 292.773438 351.628906 " fill-opacity="1" fill-rule="nonzero"/></g><g fill="#03aadf" fill-opacity="1"><g transform="translate(246.102992, 505.334452)"><g><path d="M 95.5625 66.265625 C 87.75 70.921875 79.671875 73.660156 71.328125 74.484375 C 62.992188 75.316406 54.992188 74.566406 47.328125 72.234375 C 39.660156 69.898438 32.707031 66.289062 26.46875 61.40625 C 20.238281 56.53125 15.320312 50.632812 11.71875 43.71875 C 8.113281 36.8125 6.3125 29.222656 6.3125 20.953125 C 6.3125 10.140625 7.585938 0.601562 10.140625 -7.65625 C 12.691406 -15.925781 16.9375 -22.390625 22.875 -27.046875 C 28.8125 -31.703125 36.960938 -34.03125 47.328125 -34.03125 L 82.9375 -34.03125 C 82.9375 -34.03125 82.820312 -32.941406 82.59375 -30.765625 C 82.375 -28.585938 82.375 -25.921875 82.59375 -22.765625 C 82.820312 -19.609375 83.535156 -16.453125 84.734375 -13.296875 C 85.941406 -10.140625 87.894531 -7.472656 90.59375 -5.296875 C 93.300781 -3.117188 97.0625 -2.03125 101.875 -2.03125 L 118.328125 -2.03125 L 118.328125 0 L 72.34375 0 C 67.832031 0 63.660156 -1.085938 59.828125 -3.265625 C 56.003906 -5.441406 52.960938 -8.332031 50.703125 -11.9375 C 48.453125 -15.550781 47.328125 -19.535156 47.328125 -23.890625 L 47.328125 -31.546875 C 46.578125 -31.546875 44.960938 -31.429688 42.484375 -31.203125 C 40.003906 -30.984375 37.109375 -30.347656 33.796875 -29.296875 C 30.492188 -28.242188 27.300781 -26.585938 24.21875 -24.328125 C 21.144531 -22.078125 18.59375 -18.925781 16.5625 -14.875 C 14.53125 -10.820312 13.515625 -5.710938 13.515625 0.453125 C 13.515625 6.304688 15.207031 11.785156 18.59375 16.890625 C 21.976562 22.003906 26.410156 26.25 31.890625 29.625 C 37.378906 33.007812 43.460938 35.078125 50.140625 35.828125 C 56.828125 36.585938 63.550781 35.460938 70.3125 32.453125 C 80.082031 28.097656 90.035156 24.34375 100.171875 21.1875 C 110.316406 18.03125 119.597656 16.453125 128.015625 16.453125 C 130.566406 16.453125 133.082031 16.5625 135.5625 16.78125 C 138.039062 17.007812 140.484375 17.5 142.890625 18.25 C 150.398438 20.207031 156.296875 23.25 160.578125 27.375 C 164.859375 31.507812 167.9375 35.789062 169.8125 40.21875 C 171.695312 44.65625 172.863281 48.453125 173.3125 51.609375 C 173.769531 54.765625 174 56.34375 174 56.34375 C 168.582031 51.238281 163.097656 47.859375 157.546875 46.203125 C 153.335938 45.453125 148.566406 45.601562 143.234375 46.65625 C 137.898438 47.707031 132.523438 49.285156 127.109375 51.390625 C 121.253906 53.640625 115.582031 56.113281 110.09375 58.8125 C 104.613281 61.519531 99.769531 64.003906 95.5625 66.265625 Z M 95.5625 66.265625 "/></g></g></g><g fill="#03aadf" fill-opacity="1"><g transform="translate(362.168386, 505.334452)"><g><path d="M -2.25 -2.03125 L 13.75 -2.03125 L 13.75 0 L -2.25 0 Z M -2.25 -2.03125 "/></g></g></g><g fill="#03aadf" fill-opacity="1"><g transform="translate(373.887613, 505.334452)"><g><path d="M -2.25 -2.03125 L 13.75 -2.03125 L 13.75 0 L -2.25 0 Z M -2.25 -2.03125 "/></g></g></g><g fill="#03aadf" fill-opacity="1"><g transform="translate(385.606839, 505.334452)"><g><path d="M -2.25 -2.03125 L 13.75 -2.03125 L 13.75 0 L -2.25 0 Z M -2.25 -2.03125 "/></g></g></g><g fill="#03aadf" fill-opacity="1"><g transform="translate(397.326066, 505.334452)"><g><path d="M -2.25 -2.03125 L 13.75 -2.03125 L 13.75 0 L -2.25 0 Z M -2.25 -2.03125 "/></g></g></g><g fill="#03aadf" fill-opacity="1"><g transform="translate(409.045292, 505.334452)"><g><path d="M -2.25 -2.03125 L 13.75 -2.03125 L 13.75 0 L -2.25 0 Z M -2.25 -2.03125 "/></g></g></g><g fill="#03aadf" fill-opacity="1"><g transform="translate(420.764519, 505.334452)"><g><path d="M 56.5625 -16.453125 C 55.8125 -11.796875 53.554688 -7.890625 49.796875 -4.734375 C 46.046875 -1.578125 41.769531 0 36.96875 0 L -2.25 0 L -2.25 -2.03125 L -0.21875 -2.03125 C 3.53125 -2.03125 6.832031 -3.226562 9.6875 -5.625 C 12.539062 -8.03125 14.269531 -11.039062 14.875 -14.65625 L 14.875 -47.328125 L 56.5625 -51.84375 Z M 47.78125 29.078125 C 47.78125 33.878906 46.050781 38.007812 42.59375 41.46875 C 39.132812 44.925781 35.003906 46.65625 30.203125 46.65625 C 25.242188 46.65625 21.035156 44.925781 17.578125 41.46875 C 14.117188 38.007812 12.390625 33.878906 12.390625 29.078125 C 12.390625 24.265625 14.117188 20.128906 17.578125 16.671875 C 21.035156 13.222656 25.242188 11.5 30.203125 11.5 C 35.003906 11.5 39.132812 13.222656 42.59375 16.671875 C 46.050781 20.128906 47.78125 24.265625 47.78125 29.078125 Z M 47.78125 29.078125 "/></g></g></g><g fill="#03aadf" fill-opacity="1"><g transform="translate(484.318779, 505.334452)"><g><path d="M 76.171875 -7.4375 C 76.171875 3.226562 73.238281 12.539062 67.375 20.5 C 61.519531 28.46875 53.144531 34.628906 42.25 38.984375 C 31.363281 43.347656 18.332031 45.53125 3.15625 45.53125 C 8.113281 45.53125 12.734375 43.953125 17.015625 40.796875 C 21.296875 37.640625 24.75 33.394531 27.375 28.0625 C 30.007812 22.726562 31.328125 16.976562 31.328125 10.8125 L 31.328125 -45.75 L 76.171875 -58.59375 Z M 76.171875 -7.4375 "/></g></g></g></svg>