<svg xmlns="http://www.w3.org/2000/svg" xmlns:xlink="http://www.w3.org/1999/xlink" width="1080" zoomAndPan="magnify" viewBox="0 0 810 809.999993" height="1080" preserveAspectRatio="xMidYMid meet" version="1.0"><defs><g/><clipPath id="4370f218eb"><path d="M 187 440.542969 L 325 440.542969 L 325 458.542969 L 187 458.542969 Z M 187 440.542969 " clip-rule="nonzero"/></clipPath><clipPath id="2f0af470e7"><path d="M 337 440.542969 L 474 440.542969 L 474 458.542969 L 337 458.542969 Z M 337 440.542969 " clip-rule="nonzero"/></clipPath><clipPath id="98bdacc770"><path d="M 487 440.542969 L 624 440.542969 L 624 458.542969 L 487 458.542969 Z M 487 440.542969 " clip-rule="nonzero"/></clipPath><clipPath id="3d6750cae4"><path d="M 455 143.972656 L 486 143.972656 L 486 174 L 455 174 Z M 455 143.972656 " clip-rule="nonzero"/></clipPath><clipPath id="828c9ccef5"><path d="M 327 143.972656 L 358 143.972656 L 358 174 L 327 174 Z M 327 143.972656 " clip-rule="nonzero"/></clipPath><clipPath id="051099af98"><path d="M 584 358 L 614.417969 358 L 614.417969 388 L 584 388 Z M 584 358 " clip-rule="nonzero"/></clipPath><clipPath id="f99a85c63b"><path d="M 198.917969 358 L 229 358 L 229 388 L 198.917969 388 Z M 198.917969 358 " clip-rule="nonzero"/></clipPath></defs><g clip-path="url(#4370f218eb)"><path fill="#1a85f8" d="M 192.292969 440.589844 L 319.738281 440.589844 C 322.121094 440.589844 324.0625 442.523438 324.0625 444.898438 L 324.0625 454.171875 C 324.0625 456.546875 322.121094 458.480469 319.738281 458.480469 L 192.292969 458.480469 C 189.914062 458.480469 187.972656 456.546875 187.972656 454.171875 L 187.972656 444.898438 C 187.972656 442.523438 189.914062 440.589844 192.292969 440.589844 " fill-opacity="1" fill-rule="evenodd"/></g><g clip-path="url(#2f0af470e7)"><path fill="#15b0f8" d="M 342.035156 440.589844 L 469.480469 440.589844 C 471.863281 440.589844 473.804688 442.523438 473.804688 444.898438 L 473.804688 454.171875 C 473.804688 456.546875 471.863281 458.480469 469.480469 458.480469 L 342.035156 458.480469 C 339.65625 458.480469 337.714844 456.546875 337.714844 454.171875 L 337.714844 444.898438 C 337.714844 442.523438 339.65625 440.589844 342.035156 440.589844 " fill-opacity="1" fill-rule="evenodd"/></g><g clip-path="url(#98bdacc770)"><path fill="#2ddaff" d="M 491.757812 440.589844 L 619.203125 440.589844 C 621.585938 440.589844 623.527344 442.523438 623.527344 444.898438 L 623.527344 454.171875 C 623.527344 456.546875 621.585938 458.480469 619.203125 458.480469 L 491.757812 458.480469 C 489.378906 458.480469 487.4375 456.546875 487.4375 454.171875 L 487.4375 444.898438 C 487.4375 442.523438 489.378906 440.589844 491.757812 440.589844 " fill-opacity="1" fill-rule="evenodd"/></g><g clip-path="url(#3d6750cae4)"><path fill="#03aadf" d="M 470.683594 143.972656 C 462.441406 143.972656 455.777344 150.628906 455.777344 158.867188 C 455.777344 167.105469 462.441406 173.765625 470.683594 173.765625 C 478.925781 173.765625 485.585938 167.105469 485.585938 158.867188 C 485.585938 150.628906 478.925781 143.972656 470.683594 143.972656 Z M 470.683594 143.972656 " fill-opacity="1" fill-rule="nonzero"/></g><g clip-path="url(#828c9ccef5)"><path fill="#03aadf" d="M 357.554688 158.867188 C 357.554688 150.628906 350.890625 143.972656 342.652344 143.972656 C 334.410156 143.972656 327.746094 150.628906 327.746094 158.867188 C 327.746094 167.105469 334.410156 173.765625 342.652344 173.765625 C 350.890625 173.765625 357.554688 167.105469 357.554688 158.867188 Z M 357.554688 158.867188 " fill-opacity="1" fill-rule="nonzero"/></g><path fill="#03aadf" d="M 580.761719 175.457031 C 572.519531 175.457031 565.859375 182.113281 565.859375 190.351562 C 565.859375 198.589844 572.519531 205.25 580.761719 205.25 C 589.003906 205.25 595.667969 198.589844 595.667969 190.351562 C 595.667969 182.113281 589.003906 175.457031 580.761719 175.457031 Z M 580.761719 175.457031 " fill-opacity="1" fill-rule="nonzero"/><path fill="#03aadf" d="M 247.472656 190.351562 C 247.472656 182.113281 240.8125 175.457031 232.570312 175.457031 C 224.328125 175.457031 217.667969 182.113281 217.667969 190.351562 C 217.667969 198.589844 224.328125 205.25 232.570312 205.25 C 240.8125 205.25 247.472656 198.589844 247.472656 190.351562 Z M 247.472656 190.351562 " fill-opacity="1" fill-rule="nonzero"/><path fill="#03aadf" d="M 421.570312 193.851562 C 421.570312 185.613281 414.910156 178.953125 406.667969 178.953125 C 398.425781 178.953125 391.761719 185.613281 391.761719 193.851562 C 391.761719 202.089844 398.425781 208.746094 406.667969 208.746094 C 414.910156 208.746094 421.570312 202.089844 421.570312 193.851562 Z M 421.570312 193.851562 " fill-opacity="1" fill-rule="nonzero"/><path fill="#193e80" d="M 580.761719 216.757812 C 578.730469 216.757812 576.925781 216.535156 575.003906 216.082031 L 575.003906 289.320312 L 534.246094 331.074219 C 534.132812 331.074219 534.132812 331.1875 534.132812 331.1875 L 484.683594 381.96875 C 483.667969 382.984375 483.101562 384.453125 483.101562 386.03125 L 483.101562 422.707031 L 494.617188 422.707031 L 494.617188 388.402344 L 540.796875 341.003906 L 564.503906 341.003906 L 577.601562 358.382812 C 579.746094 355.113281 582.683594 352.402344 585.957031 350.484375 L 571.957031 331.863281 C 570.828125 330.398438 569.132812 329.609375 567.328125 329.609375 L 551.972656 329.609375 L 584.941406 295.867188 C 585.957031 294.738281 586.519531 293.382812 586.519531 291.804688 L 586.519531 216.308594 C 584.714844 216.535156 582.683594 216.757812 580.761719 216.757812 Z M 580.761719 216.757812 " fill-opacity="1" fill-rule="nonzero"/><path fill="#03aadf" d="M 519.570312 231.878906 C 511.328125 231.878906 504.667969 238.539062 504.667969 246.777344 C 504.667969 255.015625 511.328125 261.671875 519.570312 261.671875 C 527.8125 261.671875 534.472656 255.015625 534.472656 246.777344 C 534.472656 238.539062 527.8125 231.878906 519.570312 231.878906 Z M 519.570312 231.878906 " fill-opacity="1" fill-rule="nonzero"/><path fill="#03aadf" d="M 308.667969 246.777344 C 308.667969 238.539062 302.003906 231.878906 293.761719 231.878906 C 285.523438 231.878906 278.859375 238.539062 278.859375 246.777344 C 278.859375 255.015625 285.523438 261.671875 293.761719 261.671875 C 302.003906 261.671875 308.667969 255.015625 308.667969 246.777344 Z M 308.667969 246.777344 " fill-opacity="1" fill-rule="nonzero"/><path fill="#193e80" d="M 342.652344 185.273438 C 340.617188 185.273438 338.699219 185.046875 336.890625 184.597656 L 336.890625 252.304688 L 317.585938 300.832031 L 299.523438 283.226562 L 299.523438 272.394531 C 297.714844 272.84375 295.796875 273.070312 293.761719 273.070312 C 291.730469 273.070312 289.8125 272.84375 288.003906 272.394531 L 288.003906 285.597656 C 288.003906 287.175781 288.683594 288.644531 289.699219 289.773438 L 315.78125 315.050781 L 365.457031 363.238281 L 365.457031 422.484375 L 376.972656 422.484375 L 376.972656 360.753906 C 376.972656 359.175781 376.410156 357.707031 375.28125 356.578125 L 326.617188 309.40625 L 348.070312 255.464844 C 348.296875 254.789062 348.519531 254.113281 348.519531 253.320312 L 348.519531 184.484375 C 346.601562 185.046875 344.683594 185.273438 342.652344 185.273438 Z M 342.652344 185.273438 " fill-opacity="1" fill-rule="nonzero"/><path fill="#193e80" d="M 470.683594 185.273438 C 468.648438 185.273438 466.84375 185.046875 464.925781 184.597656 L 464.925781 253.433594 C 464.925781 254.113281 465.039062 254.902344 465.375 255.578125 L 486.828125 309.519531 L 438.167969 356.691406 C 437.039062 357.820312 436.359375 359.289062 436.359375 360.867188 L 436.359375 422.59375 L 447.875 422.59375 L 447.875 363.351562 L 497.554688 315.164062 L 523.632812 289.886719 C 524.761719 288.757812 525.441406 287.289062 525.441406 285.710938 L 525.441406 272.621094 C 523.632812 273.070312 521.714844 273.296875 519.683594 273.296875 C 517.648438 273.296875 515.84375 273.070312 513.925781 272.621094 L 513.925781 283.453125 L 495.746094 301.058594 L 476.441406 252.53125 L 476.441406 184.824219 C 474.519531 185.046875 472.601562 185.273438 470.683594 185.273438 Z M 470.683594 185.273438 " fill-opacity="1" fill-rule="nonzero"/><path fill="#193e80" d="M 232.570312 216.757812 C 230.539062 216.757812 228.617188 216.535156 226.8125 216.082031 L 226.8125 291.578125 C 226.8125 293.042969 227.375 294.511719 228.503906 295.640625 L 261.472656 329.382812 L 246.117188 329.382812 C 244.3125 329.382812 242.617188 330.285156 241.488281 331.640625 L 227.375 350.257812 C 230.765625 352.289062 233.585938 355 235.730469 358.160156 L 248.828125 340.78125 L 272.539062 340.78125 L 318.714844 388.175781 L 318.714844 422.484375 L 330.230469 422.484375 L 330.230469 385.808594 C 330.230469 384.339844 329.667969 382.871094 328.539062 381.742188 L 278.972656 330.960938 L 278.859375 330.847656 L 238.101562 289.09375 L 238.101562 215.855469 C 236.523438 216.535156 234.488281 216.757812 232.570312 216.757812 Z M 232.570312 216.757812 " fill-opacity="1" fill-rule="nonzero"/><path fill="#193e80" d="M 434.101562 309.632812 L 412.425781 331.300781 L 412.425781 219.582031 C 410.617188 220.03125 408.699219 220.257812 406.667969 220.257812 C 404.632812 220.257812 402.828125 220.03125 400.910156 219.582031 L 400.910156 422.59375 L 412.425781 422.59375 L 412.425781 347.550781 L 443.925781 316.066406 C 444.941406 314.9375 445.617188 313.582031 445.617188 312.003906 L 445.617188 223.53125 C 445.617188 220.371094 443.019531 217.773438 439.859375 217.773438 C 436.699219 217.773438 434.101562 220.371094 434.101562 223.53125 Z M 434.101562 309.632812 " fill-opacity="1" fill-rule="nonzero"/><g clip-path="url(#051099af98)"><path fill="#03aadf" d="M 599.503906 358.160156 C 591.261719 358.160156 584.601562 364.816406 584.601562 373.054688 C 584.601562 381.292969 591.261719 387.949219 599.503906 387.949219 C 607.746094 387.949219 614.40625 381.292969 614.40625 373.054688 C 614.40625 364.816406 607.746094 358.160156 599.503906 358.160156 Z M 599.503906 358.160156 " fill-opacity="1" fill-rule="nonzero"/></g><g clip-path="url(#f99a85c63b)"><path fill="#03aadf" d="M 228.84375 373.054688 C 228.84375 364.816406 222.183594 358.160156 213.941406 358.160156 C 205.699219 358.160156 198.925781 364.816406 198.925781 373.054688 C 198.925781 381.292969 205.585938 387.949219 213.828125 387.949219 C 222.070312 387.949219 228.84375 381.292969 228.84375 373.054688 Z M 228.84375 373.054688 " fill-opacity="1" fill-rule="nonzero"/></g><g fill="#03aadf" fill-opacity="1"><g transform="translate(234.440675, 560.982643)"><g><path d="M 102.578125 71.125 C 94.179688 76.125 85.507812 79.066406 76.5625 79.953125 C 67.613281 80.835938 59.023438 80.03125 50.796875 77.53125 C 42.578125 75.03125 35.117188 71.160156 28.421875 65.921875 C 21.734375 60.679688 16.453125 54.347656 12.578125 46.921875 C 8.710938 39.503906 6.78125 31.363281 6.78125 22.5 C 6.78125 10.882812 8.148438 0.644531 10.890625 -8.21875 C 13.628906 -17.09375 18.179688 -24.03125 24.546875 -29.03125 C 30.921875 -34.03125 39.671875 -36.53125 50.796875 -36.53125 L 89.015625 -36.53125 C 89.015625 -36.53125 88.894531 -35.359375 88.65625 -33.015625 C 88.414062 -30.679688 88.414062 -27.820312 88.65625 -24.4375 C 88.894531 -21.050781 89.660156 -17.660156 90.953125 -14.265625 C 92.242188 -10.878906 94.34375 -8.015625 97.25 -5.671875 C 100.15625 -3.335938 104.1875 -2.171875 109.34375 -2.171875 L 127 -2.171875 L 127 0 L 77.65625 0 C 72.8125 0 68.332031 -1.164062 64.21875 -3.5 C 60.113281 -5.84375 56.847656 -8.945312 54.421875 -12.8125 C 52.003906 -16.6875 50.796875 -20.960938 50.796875 -25.640625 L 50.796875 -33.875 C 49.992188 -33.875 48.257812 -33.75 45.59375 -33.5 C 42.9375 -33.257812 39.832031 -32.570312 36.28125 -31.4375 C 32.738281 -30.3125 29.3125 -28.539062 26 -26.125 C 22.695312 -23.707031 19.957031 -20.320312 17.78125 -15.96875 C 15.601562 -11.613281 14.515625 -6.128906 14.515625 0.484375 C 14.515625 6.773438 16.328125 12.660156 19.953125 18.140625 C 23.585938 23.628906 28.347656 28.1875 34.234375 31.8125 C 40.117188 35.4375 46.648438 37.648438 53.828125 38.453125 C 61.003906 39.265625 68.21875 38.054688 75.46875 34.828125 C 85.957031 30.148438 96.644531 26.117188 107.53125 22.734375 C 118.414062 19.347656 128.375 17.65625 137.40625 17.65625 C 140.144531 17.65625 142.84375 17.773438 145.5 18.015625 C 148.164062 18.265625 150.789062 18.789062 153.375 19.59375 C 161.4375 21.6875 167.765625 24.953125 172.359375 29.390625 C 176.953125 33.828125 180.253906 38.421875 182.265625 43.171875 C 184.285156 47.929688 185.535156 52.003906 186.015625 55.390625 C 186.503906 58.785156 186.75 60.484375 186.75 60.484375 C 180.945312 54.992188 175.0625 51.363281 169.09375 49.59375 C 164.582031 48.78125 159.460938 48.9375 153.734375 50.0625 C 148.003906 51.195312 142.238281 52.894531 136.4375 55.15625 C 130.144531 57.570312 124.054688 60.234375 118.171875 63.140625 C 112.285156 66.046875 107.085938 68.707031 102.578125 71.125 Z M 102.578125 71.125 "/></g></g></g><g fill="#03aadf" fill-opacity="1"><g transform="translate(359.020755, 560.982643)"><g><path d="M -2.421875 -2.171875 L 14.75 -2.171875 L 14.75 0 L -2.421875 0 Z M -2.421875 -2.171875 "/></g></g></g><g fill="#03aadf" fill-opacity="1"><g transform="translate(371.599721, 560.982643)"><g><path d="M -2.421875 -2.171875 L 14.75 -2.171875 L 14.75 0 L -2.421875 0 Z M -2.421875 -2.171875 "/></g></g></g><g fill="#03aadf" fill-opacity="1"><g transform="translate(384.178687, 560.982643)"><g><path d="M -2.421875 -2.171875 L 14.75 -2.171875 L 14.75 0 L -2.421875 0 Z M -2.421875 -2.171875 "/></g></g></g><g fill="#03aadf" fill-opacity="1"><g transform="translate(396.757654, 560.982643)"><g><path d="M -2.421875 -2.171875 L 14.75 -2.171875 L 14.75 0 L -2.421875 0 Z M -2.421875 -2.171875 "/></g></g></g><g fill="#03aadf" fill-opacity="1"><g transform="translate(409.33662, 560.982643)"><g><path d="M -2.421875 -2.171875 L 14.75 -2.171875 L 14.75 0 L -2.421875 0 Z M -2.421875 -2.171875 "/></g></g></g><g fill="#03aadf" fill-opacity="1"><g transform="translate(421.915587, 560.982643)"><g><path d="M 60.71875 -17.65625 C 59.914062 -12.65625 57.5 -8.460938 53.46875 -5.078125 C 49.4375 -1.691406 44.835938 0 39.671875 0 L -2.421875 0 L -2.421875 -2.171875 L -0.234375 -2.171875 C 3.796875 -2.171875 7.34375 -3.460938 10.40625 -6.046875 C 13.46875 -8.628906 15.320312 -11.851562 15.96875 -15.71875 L 15.96875 -50.796875 L 60.71875 -55.640625 Z M 51.28125 31.203125 C 51.28125 36.367188 49.425781 40.804688 45.71875 44.515625 C 42.007812 48.222656 37.578125 50.078125 32.421875 50.078125 C 27.097656 50.078125 22.582031 48.222656 18.875 44.515625 C 15.164062 40.804688 13.3125 36.367188 13.3125 31.203125 C 13.3125 26.046875 15.164062 21.613281 18.875 17.90625 C 22.582031 14.195312 27.097656 12.34375 32.421875 12.34375 C 37.578125 12.34375 42.007812 14.195312 45.71875 17.90625 C 49.425781 21.613281 51.28125 26.046875 51.28125 31.203125 Z M 51.28125 31.203125 "/></g></g></g><g fill="#03aadf" fill-opacity="1"><g transform="translate(490.132256, 560.982643)"><g><path d="M 81.765625 -7.984375 C 81.765625 3.460938 78.617188 13.457031 72.328125 22 C 66.035156 30.550781 57.039062 37.164062 45.34375 41.84375 C 33.65625 46.519531 19.671875 48.859375 3.390625 48.859375 C 8.710938 48.859375 13.671875 47.164062 18.265625 43.78125 C 22.859375 40.394531 26.566406 35.835938 29.390625 30.109375 C 32.210938 24.390625 33.625 18.222656 33.625 11.609375 L 33.625 -49.109375 L 81.765625 -62.890625 Z M 81.765625 -7.984375 "/></g></g></g></svg>